# xmcd CD database file
#
# Track frame offsets:
#	150
#	15882
#	33661
#	53379
#	71835
#	89470
#	109913
#	125995
#	142161
#	159467
#
# Disc length: 2482 seconds
#
# Revision: 0
# Processed by: cddbd v1.5.2PL0 Copyright (c) Steve Scherf et al.
# Submitted via: CDex 1.70beta2
#
DISCID=8a09b00a
DTITLE=COSTA BRAVA de Puerto Rico - ﾡA PICO Y PALA PA' QUE NO JOMA!
DYEAR=2007
DGENRE=Salsa
TTITLE0=COSTA BRAVA de Puerto Rico - PA'LA CALLE
TTITLE1=COSTA BRAVA de Puerto Rico - NO HAY MA￑ANA SIN TI
TTITLE2=COSTA BRAVA de Puerto Rico - COMO ME GUSTA
TTITLE3=COSTA BRAVA de Puerto Rico - HOY SUPE DE TI
TTITLE4=COSTA BRAVA de Puerto Rico - REGALO DE DIOS
TTITLE5=COSTA BRAVA de Puerto Rico - YA NO ME DUELE EL DOLOR
TTITLE6=COSTA BRAVA de Puerto Rico - AMOR Y CARI￑O
TTITLE7=COSTA BRAVA de Puerto Rico - LA IMPACIENCIA
TTITLE8=COSTA BRAVA de Puerto Rico - PEQUE￑O DETALLE
TTITLE9=COSTA BRAVA de Puerto Rico - TE VOY A HACER FELIZ
EXTD=YEAR: 2007
EXTT0=
EXTT1=
EXTT2=
EXTT3=
EXTT4=
EXTT5=
EXTT6=
EXTT7=
EXTT8=
EXTT9=
PLAYORDER=
